HIERARCHY
ROOT Hips
{
	OFFSET 0.125245 88.705444 4.790124
	CHANNELS 6 Xposition Yposition Zposition Zrotation Yrotation Xrotation 
	JOINT Spine
	{
		OFFSET -0.000000 8.814246 -2.080107
		CHANNELS 3 Zrotation Yrotation Xrotation
		JOINT Spine1
		{
			OFFSET 0.000000 8.844141 0.000000
			CHANNELS 3 Zrotation Yrotation Xrotation
			JOINT Spine2
			{
				OFFSET 0.000000 11.682268 -0.000000
				CHANNELS 3 Zrotation Yrotation Xrotation
				JOINT Spine3
				{
					OFFSET -0.000000 11.746700 -0.000000
					CHANNELS 3 Zrotation Yrotation Xrotation
					JOINT Neck
					{
						OFFSET 0.000000 17.658264 -0.000000
						CHANNELS 3 Zrotation Yrotation Xrotation
						JOINT Neck1
						{
							OFFSET -0.000000 5.101515 -0.000000
							CHANNELS 3 Zrotation Yrotation Xrotation
							JOINT Head
							{
								OFFSET 0.000000 5.101515 -0.000000
								CHANNELS 3 Zrotation Yrotation Xrotation
								JOINT HeadEnd
								{
									OFFSET 0.000000 11.655085 0.000000
									CHANNELS 3 Zrotation Yrotation Xrotation
									End Site
									{
										OFFSET 0.000000 0.000000 0.000000
									}
								}
							}
						}
					}
					JOINT RightShoulder
					{
						OFFSET -2.625389 11.175210 0.000000
						CHANNELS 3 Zrotation Yrotation Xrotation
						JOINT RightArm
						{
							OFFSET -0.000000 10.434715 -0.000000
							CHANNELS 3 Zrotation Yrotation Xrotation
							JOINT RightForeArm
							{
								OFFSET 0.000000 29.628420 -0.000000
								CHANNELS 3 Zrotation Yrotation Xrotation
								JOINT RightHand
								{
									OFFSET 0.000000 22.857611 -0.000000
									CHANNELS 3 Zrotation Yrotation Xrotation
									JOINT RightHandThumb1
									{
										OFFSET -2.867323 3.959563 2.944291
										CHANNELS 3 Zrotation Yrotation Xrotation
										JOINT RightHandThumb2
										{
											OFFSET 0.000000 3.350399 -0.000000
											CHANNELS 3 Zrotation Yrotation Xrotation
											JOINT RightHandThumb3
											{
												OFFSET -0.000000 3.756509 0.000000
												CHANNELS 3 Zrotation Yrotation Xrotation
												JOINT RightHandThumb4
												{
													OFFSET 0.000000 3.147345 -0.000000
													CHANNELS 3 Zrotation Yrotation Xrotation
													End Site
													{
														OFFSET 0.000000 0.000000 0.000000
													}
												}
											}
										}
									}
									JOINT RightHandIndex1
									{
										OFFSET -0.086752 10.030893 2.345280
										CHANNELS 3 Zrotation Yrotation Xrotation
										JOINT RightHandIndex2
										{
											OFFSET 0.000000 4.061090 -0.000000
											CHANNELS 3 Zrotation Yrotation Xrotation
											JOINT RightHandIndex3
											{
												OFFSET -0.000000 3.248873 -0.000000
												CHANNELS 3 Zrotation Yrotation Xrotation
												JOINT RightHandIndex4
												{
													OFFSET -0.000000 2.639709 -0.000000
													CHANNELS 3 Zrotation Yrotation Xrotation
													End Site
													{
														OFFSET 0.000000 0.000000 0.000000
													}
												}
											}
										}
									}
									JOINT RightHandMiddle1
									{
										OFFSET 0.104102 9.502952 0.006768
										CHANNELS 3 Zrotation Yrotation Xrotation
										JOINT RightHandMiddle2
										{
											OFFSET -0.000000 4.568727 -0.000000
											CHANNELS 3 Zrotation Yrotation Xrotation
											JOINT RightHandMiddle3
											{
												OFFSET 0.000000 3.654981 -0.000000
												CHANNELS 3 Zrotation Yrotation Xrotation
												JOINT RightHandMiddle4
												{
													OFFSET 0.000000 2.741236 -0.000000
													CHANNELS 3 Zrotation Yrotation Xrotation
													End Site
													{
														OFFSET 0.000000 0.000000 0.000000
													}
												}
											}
										}
									}
									JOINT RightHandRing1
									{
										OFFSET 0.086752 8.921708 -2.267442
										CHANNELS 3 Zrotation Yrotation Xrotation
										JOINT RightHandRing2
										{
											OFFSET 0.000000 4.061090 -0.000000
											CHANNELS 3 Zrotation Yrotation Xrotation
											JOINT RightHandRing3
											{
												OFFSET 0.000000 3.654981 -0.000000
												CHANNELS 3 Zrotation Yrotation Xrotation
												JOINT RightHandRing4
												{
													OFFSET -0.000000 2.741236 0.000000
													CHANNELS 3 Zrotation Yrotation Xrotation
													End Site
													{
														OFFSET 0.000000 0.000000 0.000000
													}
												}
											}
										}
									}
									JOINT RightHandPinky1
									{
										OFFSET -0.173504 7.976997 -4.467199
										CHANNELS 3 Zrotation Yrotation Xrotation
										JOINT RightHandPinky2
										{
											OFFSET 0.000000 3.350399 -0.000000
											CHANNELS 3 Zrotation Yrotation Xrotation
											JOINT RightHandPinky3
											{
												OFFSET 0.000000 2.842763 -0.000000
												CHANNELS 3 Zrotation Yrotation Xrotation
												JOINT RightHandPinky4
												{
													OFFSET 0.000000 2.639709 0.000000
													CHANNELS 3 Zrotation Yrotation Xrotation
													End Site
													{
														OFFSET 0.000000 0.000000 0.000000
													}
												}
											}
										}
									}
									JOINT RightForeArmEnd
									{
										OFFSET 0.000000 0.000000 0.000000
										CHANNELS 3 Zrotation Yrotation Xrotation
										End Site
										{
											OFFSET 0.000000 0.000000 0.000000
										}
									}
								}
								JOINT RightArmEnd
								{
									OFFSET 0.000000 0.000000 0.000000
									CHANNELS 3 Zrotation Yrotation Xrotation
									End Site
									{
										OFFSET 0.000000 0.000000 0.000000
									}
								}
							}
						}
					}
					JOINT LeftShoulder
					{
						OFFSET 2.625389 11.175210 -0.000000
						CHANNELS 3 Zrotation Yrotation Xrotation
						JOINT LeftArm
						{
							OFFSET -0.000000 10.813635 -0.000000
							CHANNELS 3 Zrotation Yrotation Xrotation
							JOINT LeftForeArm
							{
								OFFSET -0.000000 28.724781 0.000000
								CHANNELS 3 Zrotation Yrotation Xrotation
								JOINT LeftHand
								{
									OFFSET 0.644384 25.716167 -0.328871
									CHANNELS 3 Zrotation Yrotation Xrotation
									JOINT LeftHandThumb1
									{
										OFFSET 2.867323 3.959563 2.944291
										CHANNELS 3 Zrotation Yrotation Xrotation
										JOINT LeftHandThumb2
										{
											OFFSET 0.000000 3.350399 -0.000000
											CHANNELS 3 Zrotation Yrotation Xrotation
											JOINT LeftHandThumb3
											{
												OFFSET -0.000000 3.756509 -0.000000
												CHANNELS 3 Zrotation Yrotation Xrotation
												JOINT LeftHandThumb4
												{
													OFFSET 0.000000 3.100000 -0.000000
													CHANNELS 3 Zrotation Yrotation Xrotation
													End Site
													{
														OFFSET 0.000000 0.000000 0.000000
													}
												}
											}
										}
									}
									JOINT LeftHandIndex1
									{
										OFFSET 0.086752 10.030893 2.345280
										CHANNELS 3 Zrotation Yrotation Xrotation
										JOINT LeftHandIndex2
										{
											OFFSET -0.000000 4.061090 0.000000
											CHANNELS 3 Zrotation Yrotation Xrotation
											JOINT LeftHandIndex3
											{
												OFFSET 0.000000 3.248873 0.000000
												CHANNELS 3 Zrotation Yrotation Xrotation
												JOINT LeftHandIndex4
												{
													OFFSET -0.000000 2.639709 -0.000000
													CHANNELS 3 Zrotation Yrotation Xrotation
													End Site
													{
														OFFSET 0.000000 0.000000 0.000000
													}
												}
											}
										}
									}
									JOINT LeftHandMiddle1
									{
										OFFSET -0.104102 9.502952 0.006768
										CHANNELS 3 Zrotation Yrotation Xrotation
										JOINT LeftHandMiddle2
										{
											OFFSET -0.000000 4.568727 -0.000000
											CHANNELS 3 Zrotation Yrotation Xrotation
											JOINT LeftHandMiddle3
											{
												OFFSET -0.000000 3.654981 -0.000000
												CHANNELS 3 Zrotation Yrotation Xrotation
												JOINT LeftHandMiddle4
												{
													OFFSET -0.000000 2.741236 -0.000000
													CHANNELS 3 Zrotation Yrotation Xrotation
													End Site
													{
														OFFSET 0.000000 0.000000 0.000000
													}
												}
											}
										}
									}
									JOINT LeftHandRing1
									{
										OFFSET -0.086752 8.921708 -2.267442
										CHANNELS 3 Zrotation Yrotation Xrotation
										JOINT LeftHandRing2
										{
											OFFSET 0.000000 4.061090 -0.000000
											CHANNELS 3 Zrotation Yrotation Xrotation
											JOINT LeftHandRing3
											{
												OFFSET -0.000000 3.654981 -0.000000
												CHANNELS 3 Zrotation Yrotation Xrotation
												JOINT LeftHandRing4
												{
													OFFSET 0.000000 2.741236 0.000000
													CHANNELS 3 Zrotation Yrotation Xrotation
													End Site
													{
														OFFSET 0.000000 0.000000 0.000000
													}
												}
											}
										}
									}
									JOINT LeftHandPinky1
									{
										OFFSET 0.173504 7.976997 -4.467199
										CHANNELS 3 Zrotation Yrotation Xrotation
										JOINT LeftHandPinky2
										{
											OFFSET -0.000000 3.350399 -0.000000
											CHANNELS 3 Zrotation Yrotation Xrotation
											JOINT LeftHandPinky3
											{
												OFFSET -0.000000 2.842763 -0.000000
												CHANNELS 3 Zrotation Yrotation Xrotation
												JOINT LeftHandPinky4
												{
													OFFSET -0.000000 2.639709 0.000000
													CHANNELS 3 Zrotation Yrotation Xrotation
													End Site
													{
														OFFSET 0.000000 0.000000 0.000000
													}
												}
											}
										}
									}
									JOINT LeftForeArmEnd
									{
										OFFSET 0.000000 0.000000 0.000000
										CHANNELS 3 Zrotation Yrotation Xrotation
										End Site
										{
											OFFSET 0.000000 0.000000 0.000000
										}
									}
								}
								JOINT LeftArmEnd
								{
									OFFSET 0.000000 0.000000 0.000000
									CHANNELS 3 Zrotation Yrotation Xrotation
									End Site
									{
										OFFSET 0.000000 0.000000 0.000000
									}
								}
							}
						}
					}
				}
			}
		}
	}
	JOINT RightUpLeg
	{
		OFFSET -11.289943 0.000000 -0.000000
		CHANNELS 3 Zrotation Yrotation Xrotation
		JOINT RightLeg
		{
			OFFSET -0.000000 -38.200325 -0.000000
			CHANNELS 3 Zrotation Yrotation Xrotation
			JOINT RightFoot
			{
				OFFSET -0.000000 -39.900856 0.000000
				CHANNELS 3 Zrotation Yrotation Xrotation
				JOINT RightToeBase
				{
					OFFSET -0.000000 -0.000000 15.261641
					CHANNELS 3 Zrotation Yrotation Xrotation
					JOINT RightToeBaseEnd
					{
						OFFSET -0.000000 0.000000 7.370709
						CHANNELS 3 Zrotation Yrotation Xrotation
						End Site
						{
							OFFSET 0.000000 0.000000 0.000000
						}
					}
				}
				JOINT RightLegEnd
				{
					OFFSET 0.000000 0.000000 0.000000
					CHANNELS 3 Zrotation Yrotation Xrotation
					End Site
					{
						OFFSET 0.000000 0.000000 0.000000
					}
				}
			}
			JOINT RightUpLegEnd
			{
				OFFSET 0.000000 0.000000 0.000000
				CHANNELS 3 Zrotation Yrotation Xrotation
				End Site
				{
					OFFSET 0.000000 0.000000 0.000000
				}
			}
		}
	}
	JOINT LeftUpLeg
	{
		OFFSET 11.315661 -0.000000 -0.000000
		CHANNELS 3 Zrotation Yrotation Xrotation
		JOINT LeftLeg
		{
			OFFSET -0.000000 -38.200325 0.000000
			CHANNELS 3 Zrotation Yrotation Xrotation
			JOINT LeftFoot
			{
				OFFSET 0.000000 -39.900856 0.000000
				CHANNELS 3 Zrotation Yrotation Xrotation
				JOINT LeftToeBase
				{
					OFFSET -0.000000 -0.000000 15.261641
					CHANNELS 3 Zrotation Yrotation Xrotation
					JOINT LeftToeBaseEnd
					{
						OFFSET -0.000000 0.000000 7.539996
						CHANNELS 3 Zrotation Yrotation Xrotation
						End Site
						{
							OFFSET 0.000000 0.000000 0.000000
						}
					}
				}
				JOINT LeftLegEnd
				{
					OFFSET 0.000000 0.000000 0.000000
					CHANNELS 3 Zrotation Yrotation Xrotation
					End Site
					{
						OFFSET 0.000000 0.000000 0.000000
					}
				}
			}
			JOINT LeftUpLegEnd
			{
				OFFSET 0.000000 0.000000 0.000000
				CHANNELS 3 Zrotation Yrotation Xrotation
				End Site
				{
					OFFSET 0.000000 0.000000 0.000000
				}
			}
		}
	}
}
MOTION
Frames: 5
Frame Time: 0.016667
-3.263158 87.888809 4.881130 -0.631781 2.788386 -14.845764 1.931197 -0.217903 8.790577 1.056740 -0.253365 2.016907 -2.082882 0.352124 6.825684 -1.252995 -0.241751 5.170601 3.102283 -2.570508 4.853291 -0.046800 -1.110923 -3.124118 0.208769 -0.987077 -20.309145 0.000000 0.000000 0.000000 89.194633 0.243864 11.279960 57.244957 -12.658462 9.499822 -1.240811 12.698663 90.245522 -2.806773 6.918659 -2.553144 7.333673 -1.476659 41.391201 0.000000 0.000006 -18.145458 0.000009 0.000052 -12.524289 0.000014 -0.000003 -0.000017 -3.026688 0.051145 2.614712 1.229277 -0.019526 -0.038783 1.220235 -0.019017 -0.069152 -0.000016 0.000027 -0.000014 -2.445430 0.009681 -2.351701 1.251250 -0.029041 -0.013039 1.253690 -0.008151 -0.006149 -0.000008 0.000089 0.000001 -0.114011 -0.006404 -9.733708 1.658837 0.057411 -0.082088 1.737347 0.027002 -0.039592 0.000007 -0.001098 -0.000003 2.441193 0.081852 -17.959724 2.813629 0.211826 -0.230319 2.778987 0.090651 -0.222059 0.000227 0.000006 -0.000010 0.000000 0.000000 0.000000 0.000000 0.000000 0.000000 -87.887314 -0.719580 6.112972 -73.034004 -3.554005 -2.792495 -0.533562 -18.221325 92.917000 -21.031052 -58.591095 9.914557 -5.224236 1.071844 42.356674 0.000004 0.000015 -12.681005 -0.000061 -0.000019 -8.953477 -0.000094 0.000020 0.000557 12.066234 0.050535 6.621830 0.488993 -0.063609 -0.072643 0.282531 -0.036133 -0.054760 0.000003 0.000633 -0.000012 8.740931 0.011265 0.318747 -0.293802 -0.036856 -0.035852 -0.064988 -0.011504 -0.034356 -0.000809 0.000002 0.000131 0.659531 -0.014469 -8.529595 -2.473600 0.069436 0.043707 -2.115531 0.014305 0.028412 -0.001054 0.000015 -0.000001 -6.176678 -0.002588 -18.012188 -5.514892 0.127603 0.195094 -5.606131 0.049943 0.128527 -0.000800 0.000009 -0.000050 0.000000 0.000000 0.000000 0.000000 0.000000 0.000000 -2.512153 -13.772931 20.077654 -0.064874 -0.672332 5.786772 -1.321520 -10.303369 14.932239 -0.942655 1.106948 -16.254173 0.000000 0.000000 0.000000 0.000000 0.000000 0.000000 0.000000 0.000000 0.000000 5.983437 -3.581951 11.826518 0.220861 0.955035 12.789350 -1.546651 -0.371770 15.217646 0.746013 -1.068109 -19.044485 0.000000 0.000000 0.000000 0.000000 0.000000 0.000000 0.000000 0.000000 0.000000 
-3.279770 87.884819 4.893150 -0.609509 2.879674 -14.861302 1.905289 -0.214579 8.796293 1.034596 -0.248844 1.980804 -2.071285 0.286993 6.791523 -1.267790 -0.265249 5.158116 3.045043 -2.525493 4.857110 -0.051219 -1.094705 -3.126065 0.215403 -0.986603 -20.366674 0.000000 0.000000 0.000000 89.189735 0.233669 11.283705 56.913803 -13.131590 9.815122 -1.245184 12.669392 90.117302 -2.787626 6.376718 -2.529315 7.268983 -1.467508 41.424011 0.000000 0.000005 -17.981976 0.000009 0.000052 -12.408092 0.000014 -0.000003 -0.000017 -3.351488 0.048116 2.673173 1.131741 -0.017876 -0.035079 1.119492 -0.017381 -0.065195 -0.000016 0.000027 -0.000013 -2.822054 0.008760 -2.331933 1.139309 -0.028883 -0.010123 1.144701 -0.008251 -0.003396 -0.000009 0.000092 0.000001 -0.571429 -0.005463 -9.767241 1.518818 0.056715 -0.088619 1.608388 0.027394 -0.044592 0.000007 -0.001002 -0.000004 1.998316 0.089529 -18.017159 2.655592 0.209594 -0.257026 2.630769 0.090019 -0.245064 0.000231 0.000006 -0.000011 0.000000 0.000000 0.000000 0.000000 0.000000 0.000000 -87.832863 -0.755411 6.159896 -72.892654 -3.208103 -2.598907 -0.559383 -18.217588 92.672371 -21.701057 -58.444656 10.123617 -5.203421 1.068667 42.365875 0.000004 0.000014 -12.626554 -0.000059 -0.000019 -8.919069 -0.000102 0.000019 0.000593 12.118084 0.047798 6.617076 0.495472 -0.062213 -0.070669 0.287818 -0.034981 -0.053187 0.000003 0.000613 -0.000012 8.801795 0.009702 0.294853 -0.285129 -0.036622 -0.036267 -0.056145 -0.011298 -0.034986 -0.000797 0.000003 0.000128 0.734879 -0.013385 -8.573699 -2.479443 0.068211 0.044895 -2.118231 0.013978 0.030191 -0.001012 0.000014 -0.000001 -6.121562 0.002918 -18.045050 -5.527962 0.124021 0.200011 -5.622592 0.048262 0.134650 -0.000790 0.000009 -0.000049 0.000000 0.000000 0.000000 0.000000 0.000000 0.000000 -2.560576 -13.864493 20.125214 -0.065687 -0.669668 5.765291 -1.325942 -10.356117 14.904881 -0.949252 1.107174 -16.223431 0.000000 0.000000 0.000000 0.000000 0.000000 0.000000 0.000000 0.000000 0.000000 5.958552 -3.632779 11.804547 0.221598 0.963767 12.814005 -1.545220 -0.447500 15.197108 0.740119 -1.069245 -19.036682 0.000000 0.000000 0.000000 0.000000 0.000000 0.000000 0.000000 0.000000 0.000000 
-3.295551 87.878105 4.904771 -0.586906 2.973890 -14.878110 1.873469 -0.212962 8.805631 1.009462 -0.244409 1.940987 -2.056340 0.211874 6.748691 -1.279128 -0.292614 5.148906 3.010012 -2.473616 4.875963 -0.053497 -1.059252 -3.120133 0.213736 -0.986930 -20.415394 0.000000 0.000000 0.000000 89.176308 0.226492 11.281202 56.528763 -13.639518 10.170605 -1.259712 12.603401 90.094162 -2.910451 5.512235 -2.501722 7.190154 -1.455320 41.464207 0.000001 0.000005 -17.787676 0.000010 0.000052 -12.271166 0.000014 -0.000003 -0.000017 -3.745670 0.045605 2.759603 1.044420 -0.014619 -0.036270 1.029976 -0.014260 -0.065499 -0.000017 0.000027 -0.000013 -3.275730 0.008177 -2.298938 1.032635 -0.028118 -0.008876 1.040261 -0.007870 -0.002122 -0.000009 0.000094 0.000002 -1.127424 -0.004835 -9.803583 1.374042 0.055087 -0.093152 1.472578 0.027078 -0.048170 0.000008 -0.000910 -0.000005 1.440290 0.096525 -18.093378 2.481272 0.204992 -0.279790 2.466510 0.087625 -0.264828 0.000246 0.000006 -0.000011 0.000000 0.000000 0.000000 0.000000 0.000000 0.000000 -87.765366 -0.795226 6.217084 -72.728897 -2.753963 -2.414626 -0.577945 -18.163651 92.372353 -21.983210 -58.159557 10.065471 -5.166509 1.062614 42.383663 0.000004 0.000014 -12.533502 -0.000057 -0.000019 -8.857569 -0.000122 0.000019 0.000651 12.266987 0.045305 6.652060 0.497939 -0.059833 -0.065950 0.292655 -0.032808 -0.049543 0.000004 0.000609 -0.000012 8.966716 0.008297 0.299758 -0.272591 -0.036027 -0.035484 -0.044907 -0.010799 -0.034647 -0.000787 0.000003 0.000126 0.945646 -0.012451 -8.601239 -2.459563 0.066431 0.044674 -2.096233 0.013261 0.030854 -0.000969 0.000014 -0.000001 -5.904780 0.008493 -18.075594 -5.497331 0.119054 0.201641 -5.596947 0.045545 0.137749 -0.000786 0.000010 -0.000049 0.000000 0.000000 0.000000 0.000000 0.000000 0.000000 -2.605856 -13.951871 20.169420 -0.066496 -0.668798 5.747523 -1.325830 -10.413883 14.870269 -0.956448 1.109631 -16.193077 0.000000 0.000000 0.000000 0.000000 0.000000 0.000000 0.000000 0.000000 0.000000 5.927596 -3.677724 11.780188 0.222090 0.971105 12.839648 -1.537509 -0.527003 15.179779 0.734122 -1.067828 -19.031952 0.000000 0.000000 0.000000 0.000000 0.000000 0.000000 0.000000 0.000000 0.000000 
-3.309868 87.869095 4.915740 -0.564634 3.071970 -14.897210 1.837846 -0.213087 8.818127 0.979200 -0.239710 1.902546 -2.037716 0.129447 6.699331 -1.286794 -0.323100 5.140546 2.998221 -2.419151 4.904335 -0.053933 -1.007925 -3.108977 0.204778 -0.988209 -20.453979 0.000000 0.000000 0.000000 89.155746 0.223092 11.274041 56.125641 -14.138854 10.552149 -1.283958 12.513589 90.197350 -3.153606 4.379351 -2.476188 7.101874 -1.440822 41.509449 0.000001 0.000004 -17.573931 0.000010 0.000051 -12.121154 0.000014 -0.000003 -0.000017 -4.189160 0.043726 2.872165 0.972806 -0.010087 -0.041989 0.957762 -0.009999 -0.069755 -0.000017 0.000027 -0.000013 -3.784499 0.007975 -2.252526 0.938274 -0.026851 -0.009330 0.947294 -0.007054 -0.002339 -0.000008 0.000097 0.000002 -1.752488 -0.004550 -9.842431 1.234961 0.052682 -0.095556 1.339654 0.026109 -0.050207 0.000009 -0.000823 -0.000005 0.801626 0.102402 -18.187595 2.302956 0.198515 -0.297776 2.297732 0.083735 -0.280592 0.000269 0.000006 -0.000011 0.000000 0.000000 0.000000 0.000000 0.000000 0.000000 -87.692192 -0.836855 6.284307 -72.554771 -2.212240 -2.245531 -0.587250 -18.071922 92.038673 -21.865433 -57.718300 9.733785 -5.112461 1.053701 42.410339 0.000005 0.000014 -12.399220 -0.000055 -0.000019 -8.766748 -0.000150 0.000019 0.000727 12.520570 0.043202 6.725336 0.497733 -0.056647 -0.058780 0.297586 -0.029761 -0.043994 0.000004 0.000618 -0.000011 9.241523 0.007149 0.331595 -0.256550 -0.035108 -0.033536 -0.031327 -0.010035 -0.033369 -0.000784 0.000004 0.000124 1.291178 -0.011727 -8.616953 -2.416682 0.064256 0.043023 -2.051694 0.012209 0.030338 -0.000932 0.000014 -0.000001 -5.530061 0.013824 -18.113382 -5.426949 0.113071 0.199609 -5.532897 0.041990 0.137509 -0.000782 0.000010 -0.000048 0.000000 0.000000 0.000000 0.000000 0.000000 0.000000 -2.648306 -14.032071 20.212996 -0.067283 -0.669573 5.730877 -1.319857 -10.475209 14.830320 -0.964437 1.114236 -16.162315 0.000000 0.000000 0.000000 0.000000 0.000000 0.000000 0.000000 0.000000 0.000000 5.890273 -3.713546 11.754616 0.222318 0.976765 12.866357 -1.522543 -0.609150 15.166112 0.727975 -1.064228 -19.028811 0.000000 0.000000 0.000000 0.000000 0.000000 0.000000 0.000000 0.000000 0.000000 
-3.322018 87.858353 4.925675 -0.544073 3.172351 -14.919239 1.800345 -0.215028 8.833687 0.943553 -0.235044 1.870581 -2.015148 0.041633 6.645146 -1.291234 -0.356231 5.130041 3.001449 -2.362896 4.937106 -0.053980 -0.944887 -3.095546 0.189547 -0.990300 -20.480997 0.000000 0.000000 0.000000 89.130730 0.223384 11.264517 55.733646 -14.593721 10.950770 -1.316814 12.415602 90.429222 -3.499747 3.065884 -2.454033 7.009865 -1.425011 41.556835 0.000001 0.000004 -17.353954 0.000010 0.000051 -11.967070 0.000014 -0.000003 -0.000016 -4.660941 0.042402 3.008687 0.918384 -0.004726 -0.051155 0.904303 -0.005032 -0.077041 -0.000017 0.000027 -0.000013 -4.323607 0.008124 -2.189797 0.859363 -0.025233 -0.011207 0.868682 -0.005897 -0.003793 -0.000008 0.000099 0.000002 -2.412916 -0.004553 -9.875737 1.108610 0.049749 -0.096105 1.216701 0.024638 -0.050887 0.000009 -0.000742 -0.000006 0.120369 0.106957 -18.287271 2.130841 0.190886 -0.311222 2.134335 0.078826 -0.292475 0.000296 0.000006 -0.000012 0.000000 0.000000 0.000000 0.000000 0.000000 0.000000 -87.619835 -0.878043 6.357458 -72.385216 -1.617387 -2.096595 -0.587729 -17.957275 91.700706 -21.390968 -57.145012 9.161456 -5.044577 1.042601 42.443989 0.000005 0.000013 -12.231999 -0.000053 -0.000019 -8.651844 -0.000179 0.000019 0.000813 12.863642 0.041473 6.828055 0.494490 -0.052927 -0.050043 0.301139 -0.026092 -0.037210 0.000004 0.000633 -0.000011 9.608031 0.006284 0.384927 -0.239391 -0.033952 -0.030731 -0.017246 -0.009075 -0.031410 -0.000796 0.000005 0.000122 1.741790 -0.011210 -8.622514 -2.357368 0.061870 0.040234 -1.990608 0.010917 0.028840 -0.000905 0.000014 -0.000000 -5.032873 0.018655 -18.157825 -5.326656 0.106507 0.194246 -5.439908 0.037864 0.134303 -0.000776 0.000010 -0.000048 0.000000 0.000000 0.000000 0.000000 0.000000 0.000000 -2.686375 -14.100873 20.255384 -0.067989 -0.671493 5.717221 -1.308242 -10.538933 14.788669 -0.973057 1.120568 -16.131882 0.000000 0.000000 0.000000 0.000000 0.000000 0.000000 0.000000 0.000000 0.000000 5.848577 -3.737292 11.729298 0.222333 0.980662 12.896510 -1.500373 -0.690796 15.154737 0.721511 -1.058875 -19.026291 0.000000 0.000000 0.000000 0.000000 0.000000 0.000000 0.000000 0.000000 0.000000 
